<svg id="Layer_1" xmlns="http://www.w3.org/2000/svg" viewBox="0 0 683 437"><style>.st0{fill:#0d0d0d}.st2{fill:none;stroke:#ef4123;stroke-linejoin:round;stroke-miterlimit:10}</style><path class="st0" d="M198.77 311.9c48.88-53.1 62.72-64.94 63.72-64.07 1.21 1.05-14.95 22.23-25.47 54.66-7.35 22.65-2.2 38.52 18.36 38.52 14.45 0 29.38-13.01 36.24-27.85 3.67-7.81 3.67-13.27 2.45-16.14-.98-2.08-3.43-2.08-4.41.26-7.59 16.66-21.06 35.4-31.1 35.92-9.06.52-10.28-11.71-4.16-26.81 5.63-13.54 17.38-32.54 22.77-43.99 6.37-13.27-1.22-26.29-9.55-27.33-6.61-.78-19.34 7.81-29.38 18.22 12-21.66 22.1-37.81 29.38-48.93 6.03-9.21 15.17-22.68 13.26-38.12-.19-1.57-1.15-9.35-4.06-9.82-3.11-.5-6.8 7.62-8.22 10.72-33.31 72.68-55.3 114.96-76.38 143.8-3.23 4.42-8.84 11.81-16.64 20.53"/><path class="st0" d="M415.11 340.65c-18.61-1.04-25.96-18.74-19.83-39.82 5.14-17.44 19.83-36.7 30.36-49.19-10.77 7.29-21.79 9.89-29.38 9.89-20.32 45.29-46.77 78.09-75.91 78.61-31.1.52-41.63-31.75-25.71-65.07 15.43-32.28 40.4-46.85 52.65-39.3 6.12 3.9 10.53 7.55 14.45 13.27 4.16 6.25 1.71 21.6-8.08 34.88-11.51 15.88-27.91 22.38-45.05 7.81-7.84 23.69-1.71 40.6 10.77 41.12 26.93 1.3 53.87-39.82 67.34-72.88-18.85-8.33 5.14-42.95 15.43-43.47 7.59-.26 5.14 15.62-.98 32.54 8.57-1.3 17.14-5.47 26.69-12.23 2.94-2.08 5.14-3.38 6.86-.78 4.9 5.73 11.02 18.22 3.67 26.81-11.51 13.53-24 31.23-28.16 45.29-4.16 14.32-1.22 24.73 6.12 24.99 10.28.52 22.77-16.66 30.61-35.92.98-2.08 2.69-2.6 3.67-.26 1.22 2.86 1.71 9.63-1.22 16.92-6.14 15.6-20.83 27.57-34.3 26.79zm-75.42-67.41c7.84-10.67 12.98-24.21 9.79-27.07-5.39-4.95-25.47 11.45-36.73 35.4-.74 1.3-1.22 3.12-1.96 4.42 12.01 7.81 21.56-2.86 28.9-12.75z"/><path class="st0" d="M492.73 346.38c-13.71 34.88-31.1 76.78-51.42 85.11-4.65 1.82-9.3 1.82-13.96-5.47-4.9-7.81-9.79-16.92-4.9-32.27 7.35-23.43 28.16-39.04 52.4-49.19 2.45-5.99 4.9-12.49 7.59-18.74-7.59 8.33-16.9 15.1-26.69 14.32-17.63-1.56-18.12-20.56-12.49-37.74 5.39-16.66 17.39-42.43 33.3-65.85 1.96-2.86 4.41-2.6 6.12 0 5.88 8.33 4.41 19.26-4.65 34.62-8.81 15.1-14.2 25.77-18.85 38-4.9 12.75-4.41 21.86 1.22 22.38 9.55.78 21.79-15.88 34.28-38.52 10.53-19.26 21.06-42.69 29.63-55.96 2.2-3.38 3.92-3.9 6.12-1.82 3.43 4.68 5.39 15.88-.98 29.15-7.35 15.1-22.28 46.33-32.57 71.58 19.1-10.93 33.55-25.77 43.34-40.08 1.22-1.82 3.43-2.08 3.92.52.49 2.34-.25 8.33-4.41 15.1-9.54 16.12-26.68 26.01-47 34.86zm-60.48 70.79c3.18 4.95 23.26-23.42 38.44-61.69-31.83 19.53-42.85 55.19-38.44 61.69z"/><path class="st0" d="M559.58 332.84c-11.02-1.04-8.32-22.64 1.47-48.15 21.79-15.1 49.22-46.33 56.81-78.35 2.94-12.23 1.47-21.86-5.63-28.63-3.43-3.38-6.86-2.86-10.53 1.3-24.98 27.59-52.89 74.7-61.95 119.99-5.63 28.11 3.42 40.74 20.32 41.12 18.92.43 40.02-24.63 44.96-32.36-13.78 12.72-37.09 25.82-45.45 25.08zM571.33 261c16.9-33.32 35.01-62.21 38.2-60.13S599 244.61 565.45 273.5c1.72-4.17 3.68-8.33 5.88-12.5z"/><path class="st0" d="M588.92 320.69c6.62-5.87 13.04-12.07 19.27-18.39a439.12 439.12 0 0 0 18.11-19.53c11.59-13.4 22.41-27.53 31.03-42.77 4.31-7.6 7.9-15.57 10.4-23.73 2.33-8.35 4.01-16.84 4.55-25.39.56-8.54-.05-17.11-1.96-25.33-.52-2.04-.97-4.1-1.65-6.08-.58-2.02-1.36-3.96-2.1-5.91-.82-1.91-1.67-3.81-2.63-5.61-.47-.91-.99-1.78-1.5-2.65l-.79-1.25-.4-.57-.2-.28-.13-.18-.15-.21-.28-.45-.44-.7c-.16-.26-.36-.54-.53-.8-.35-.54-.76-1.08-1.15-1.62-.38-.55-.81-1.07-1.23-1.6-.41-.53-.83-1.06-1.28-1.57l-1.33-1.54-1.4-1.49c-.9-1.02-1.93-1.92-2.9-2.87a67.614 67.614 0 0 0-13.11-9.6c-.59-.33-1.17-.69-1.76-1.01l-1.83-.88c-1.23-.56-2.4-1.24-3.68-1.68l-3.77-1.48-3.88-1.17c-1.28-.44-2.61-.69-3.93-.97l-1.98-.42c-.67-.14-1.27-.29-2.07-.42-3.01-.56-5.62-1.04-8.36-1.36-5.42-.68-10.95-.8-16.54-.57-5.58.2-11.22.83-16.84 1.62-11.27 1.63-22.47 4.09-33.67 6.98-11.23 2.9-22.46 6.09-33.65 9.38-11.19 3.3-22.36 6.72-33.43 10.3l-8.28 2.72-3.98 1.35-.96.32-1.13.41-2.29.78c-6.03 1.96-12.1 3.46-18.39 4.49-6.28 1.01-12.75 1.55-19.45 1.17-6.67-.4-13.69-1.71-20.42-4.93-1.8-.86-3.02-1.59-4.4-2.34l-2.03-1.14-1.96-1.17c-2.64-1.55-5.18-3.15-7.74-4.74a602.87 602.87 0 0 1-14.95-9.85c-9.83-6.68-19.46-13.52-29.03-20.49l-7.15-5.27c-2.3-1.7-4.63-3.4-6.98-5.09-4.69-3.37-9.44-6.7-14.22-9.96-9.56-6.53-19.24-12.87-29.06-18.89-9.82-6.02-19.79-11.77-29.87-16.97-9.91-5.03-20.18-9.3-30.69-12.56-21.01-6.51-43.06-8.66-64.21-5.51-10.57 1.48-20.93 4.59-30.72 8.52-4.84 2.11-9.62 4.35-14.16 7.06-4.58 2.61-8.96 5.6-13.2 8.75-16.92 12.74-30.79 29.75-41.65 48.58a192.85 192.85 0 0 0-7.55 14.47c-2.32 4.91-4.45 9.95-6.23 14.91-.44 1.23-.87 2.47-1.22 3.61-.37 1.27-.79 2.51-1.14 3.81-.75 2.56-1.4 5.18-2.03 7.83-1.22 5.3-2.25 10.72-3.12 16.19-.43 2.73-.81 5.48-1.15 8.22l-.48 4.18-.42 4.15a257.1 257.1 0 0 0-1.06 16.64c-.17 5.55-.12 11.08.12 16.57.23 5.49.69 10.92 1.43 16.25.2 1.32.35 2.67.59 3.98l.72 3.92c.23 1.31.58 2.56.86 3.85l.44 1.92.53 1.89c1.41 5.05 3.16 10.1 5.23 15.08 2.09 4.97 4.49 9.86 7.13 14.63 2.64 4.77 5.5 9.46 8.64 13.95 6.22 9.03 13.38 17.43 21.33 24.86 3.96 3.74 8.19 7.13 12.58 10.22 4.39 3.09 8.99 5.83 13.76 8.08 9.54 4.49 19.84 6.94 30.13 6.3 5.13-.34 10.33-1.3 15.44-3.05 5.11-1.72 10.14-3.97 15.01-6.65 9.69-5.46 18.8-12.42 26.95-20.42 8.17-8 15.37-17.06 21.07-27.19l2.54 1.19c-4.22 11.14-10.48 21.63-18.05 31-7.5 9.46-16.32 17.97-26.42 25.12-5.1 3.51-10.51 6.68-16.31 9.27-5.79 2.6-12.08 4.46-18.58 5.5-13.07 2-26.58-.02-38.62-4.63-12.08-4.61-23.05-11.37-32.8-19.31-4.88-3.98-9.52-8.21-13.89-12.7-4.35-4.5-8.43-9.24-12.3-14.16-3.87-4.91-7.48-10.04-10.78-15.37-3.31-5.33-6.38-10.84-9.14-16.55-2.73-5.73-5.18-11.65-7.16-17.83l-.75-2.32-.65-2.34c-.42-1.56-.9-3.13-1.25-4.69l-1.07-4.69c-.36-1.57-.6-3.12-.91-4.69-2.31-12.51-3.1-24.96-3.19-37.32-.01-6.18.16-12.34.55-18.51.09-1.54.22-3.08.34-4.61l.41-4.57c.3-3.09.65-6.16 1.06-9.23.8-6.14 1.85-12.27 3.17-18.42.68-3.08 1.39-6.16 2.23-9.25.39-1.54.87-3.09 1.31-4.64.5-1.67 1.02-3.2 1.56-4.74 2.14-6.09 4.53-11.89 7.18-17.61 2.67-5.7 5.58-11.27 8.73-16.71a196.48 196.48 0 0 1 22.02-30.8c4.21-4.77 8.68-9.33 13.4-13.66 1.18-1.08 2.41-2.11 3.61-3.17l1.82-1.57 1.88-1.51c1.26-1 2.49-2.02 3.77-2.99l3.89-2.85c1.28-.97 2.64-1.84 3.98-2.74 1.35-.88 2.66-1.82 4.05-2.64 2.77-1.66 5.51-3.35 8.39-4.82 5.66-3.1 11.61-5.67 17.61-8.02 6.06-2.27 12.21-4.02 18.4-5.62l9.39-1.98 9.49-1.36c12.7-1.42 25.52-1.28 38.06.26 12.55 1.54 24.82 4.46 36.62 8.44 11.81 4 23.15 9.06 34.01 14.93 10.64 5.8 20.87 12.02 30.91 18.49 10.03 6.47 19.84 13.21 29.5 20.14 4.83 3.46 9.62 6.98 14.37 10.56 2.38 1.79 4.74 3.6 7.12 5.44l6.89 5.33c9.24 7.06 18.58 14.02 28.01 20.74 4.71 3.37 9.46 6.64 14.22 9.84 2.39 1.56 4.77 3.15 7.16 4.61l1.79 1.12 1.78 1.06c1.17.69 2.46 1.48 3.3 1.9 3.81 1.98 8.5 3.12 13.5 3.55 5.01.44 10.31.17 15.63-.54 5.31-.71 10.7-1.89 15.87-3.41l1.89-.59.95-.32 1.13-.35 4.39-1.35 8.51-2.53c11.35-3.32 22.71-6.47 34.11-9.49 11.41-3.01 22.83-5.92 34.4-8.57 11.58-2.66 23.4-4.93 35.41-6.27 6.01-.66 12.07-1.14 18.22-1.18 6.13-.06 12.37.26 18.57 1.23 3.07.46 6.22 1.14 8.96 1.73.64.13 1.47.34 2.22.52l2.31.57c1.54.37 3.08.73 4.57 1.28l4.5 1.52 4.37 1.87c1.48.58 2.84 1.39 4.26 2.1l2.1 1.1c.68.39 1.35.82 2.02 1.23a78.629 78.629 0 0 1 14.86 11.61c1.09 1.14 2.23 2.22 3.24 3.42l1.56 1.77 1.48 1.84c.5.61.98 1.24 1.44 1.88.47.64.95 1.26 1.39 1.94.45.66.9 1.31 1.33 2.01.22.35.43.67.65 1.05.22.38.41.69.68 1.19l-.43-.66c.92 1.28 1.46 2.24 2.11 3.34.58 1.08 1.18 2.14 1.7 3.23 1.07 2.16 1.98 4.37 2.85 6.59.78 2.24 1.59 4.48 2.18 6.77.7 2.26 1.13 4.58 1.63 6.88 1.82 9.24 2.14 18.69 1.23 27.93-.91 9.25-3.02 18.27-5.79 27.02-3.03 8.81-7.13 17.07-11.87 24.83-9.48 15.55-21.04 29.47-33.28 42.6a443.06 443.06 0 0 1-19.01 19.03c-6.53 6.14-13.19 12.11-20.13 17.82l-1.81-2.15z"/></svg>